M48
;Layer_Color=9474304
;FILE_FORMAT=4:4
METRIC,LZ
;TYPE=PLATED
T01F00S00C0.7300
T02F00S00C0.8000
T03F00S00C0.9000
T04F00S00C1.0000
T05F00S00C3.0000
%
T01
X0010254Y0013208
X0018194
Y0015748
Y0018288
Y0020828
X0010254
Y0018288
Y0015748
T02
X001151Y0028829
X001651
T03
X001016Y0003937
X00127
X0022098
X0024638
X0005461Y0024892
X0002921
Y0027432
X0005461
T04
X0003384Y0009144
X0024384
X0025781Y001202
X0021717
Y003302
X0025781
T05
X0002794Y0002794
X001778Y0006477
X0004064Y0033147
M30
