G04*
G04 #@! TF.GenerationSoftware,Altium Limited,Altium Designer,25.8.1 (18)*
G04*
G04 Layer_Color=16711935*
%FSLAX44Y44*%
%MOMM*%
G71*
G04*
G04 #@! TF.SameCoordinates,52FA2399-3EC7-4589-A8BB-4CD283C26CAA*
G04*
G04*
G04 #@! TF.FilePolarity,Negative*
G04*
G01*
G75*
%ADD17C,1.7272*%
%ADD18C,1.7032*%
%ADD19C,1.3332*%
%ADD20R,1.7032X1.7032*%
%ADD21R,1.3332X1.3332*%
%ADD22R,1.4032X1.4032*%
%ADD23C,1.4032*%
D17*
X177800Y64770D02*
D03*
X40640Y331470D02*
D03*
X27940Y27940D02*
D03*
D18*
X257810Y120200D02*
D03*
Y330200D02*
D03*
X29210Y248920D02*
D03*
X243840Y91440D02*
D03*
X246380Y39370D02*
D03*
X217170Y120200D02*
D03*
Y330200D02*
D03*
X29210Y274320D02*
D03*
X54610Y248920D02*
D03*
X33840Y91440D02*
D03*
X101600Y39370D02*
D03*
D19*
X102540Y182880D02*
D03*
X181940Y208280D02*
D03*
Y182880D02*
D03*
Y157480D02*
D03*
Y132080D02*
D03*
X102540D02*
D03*
Y157480D02*
D03*
D20*
X54610Y274320D02*
D03*
X220980Y39370D02*
D03*
X127000D02*
D03*
D21*
X102540Y208280D02*
D03*
D22*
X165100Y288290D02*
D03*
D23*
X115100D02*
D03*
M02*
